<?xml version="1.0" encoding="UTF-8" standalone="no"?>
<svg xmlns="http://www.w3.org/2000/svg" aria-hidden="true" focusable="false" role="presentation" class="icon icon-heart" viewBox="0 0 72 72"><path fill="#FFFFFF" d="M58.9 10.4c-11-5.7-20.5 5.7-24.8 14.6h4.3c-3.3-6.6-8.8-14.4-16.5-15.9-7-1.4-12.7 3.4-13.8 10.1-1.3 7.8 3.5 16.3 7.6 22.7 5.2 7.9 11.8 14.8 18.8 21.1 1 .9 2.5.9 3.5 0 8.6-7.7 16.8-16.4 22.1-26.8 4.2-8.4 7.4-19.1-1.2-25.8-2.6-2-5 2.4-2.5 4.3 8.1 6.2-.8 20-4.9 26-4.8 7-10.8 13.1-17.1 18.7h3.5c-8.9-8-17.4-17-22.4-28-2.4-5.2-5.6-18.1 4.3-17.6 6.6.3 11.6 8.5 14.2 13.7.8 1.6 3.5 1.6 4.3 0 2.9-5.9 10-17 18-12.8 2.9 1.5 5.4-2.8 2.6-4.3z"/></svg>