<?xml version="1.0" encoding="UTF-8" standalone="no"?>
<svg xmlns="http://www.w3.org/2000/svg" aria-hidden="true" focusable="false" role="presentation" class="icon icon-user" viewBox="0 0 72 72"><style>.st0{fill:#E50914}</style><path d="M39.8 7c12.8 1.3 23 11.1 21.9 24.4-.4 4.7-2.6 10.5-1.2 15.2 1.1 3.7 4.6 5.2 8 6.1-.4-1.4-.7-2.8-1.1-4.2-1 1-2.2 2.1-2.5 3.5-.3 1.2.4 2.3.4 3.3.2.2.3.4.5.7-.2-.1-.3-.1-.5-.2-.1.5-.8 1-1 1.5-1 2-.2 3.3-3.3 4.4-1.5.5-3 .5-4.4 1.2-1.7.9-1.6 2-3.9 1.2-1.1-.4-1.9-1.4-3.1-1.7-2.7-.6-5.2 1.6-7.9-.8-.6 1.4-1.2 2.8-1.8 4.3 11.3.6 12.4-14.5 11.4-22.4-.4-3.1-.8-6.2-1.2-9.4-.2-1.6-.2-3.7-1.2-5.1-.9-1.3-2-1.7-3.5-1.9-.5-.1-1.4.4-1.8.3 1.5.4 0-.8-.5-1.1-1.3-.6-2.6-.3-3.4.9-.1.2-.3.4-.4.6.7-.4 1.4-.8 2.2-1.2-.6 0-1.5-.5-2-.6-1.4-.3-2.6.4-3.1 1.7l-.3.9 1.7-1.7c-.3-.1-.6-.1-.9-.2-1.5-.9-3.2 0-3.7 1.5l-.3.9c1-.6 2.1-1.2 3.1-1.7-2.1-.3-5.2-1.3-7.3-.9-1.7.3-2.8 1.7-4.1 2.8 1-.1 2-.3 3-.4-1.4-1-1.7-1.1-3.3-1.6-1.7-.5-3 .9-3.2 2.4 0 .5-.1.9-.1 1.4 1.1-.8 2.1-1.6 3.2-2.4-.9-.3-1.7-.7-2.6-1-1.7-.6-3 1-3.2 2.4-.1.7-.1 1.4-.2 2.1 1.1-.8 2.1-1.6 3.2-2.4-1.2-.4-2.3-.7-3.5-1.1-1.5-.4-3.3.8-3.2 2.4.2 3.4.8 6.8 2.1 9.9.9 2.1 2.2 3.8 1.9 6.1-.2 1.5-.8 2.7-.8 4.3.1 6.5 5 11 10.1 14.2v-4.3c-4.1 1.8-11.2 1.4-15.7.4-3-.7-5.3-4.9-7.6-7.1-.6 1.4-1.2 2.8-1.8 4.3 11.5.5 8.7-19.6 8.9-26.5.3-7.1 1.3-14 7.2-18.6C25.1 9.1 32 6.7 39.8 7c3.2.1 3.2-4.9 0-5-10.1-.4-23.2 4-28.9 13-2.9 4.6-3.7 10.5-4 15.8-.2 3.5 1.4 23.4-4 23.2-2.2-.1-3.3 2.8-1.8 4.3 1.2 1.2 2.5 2.3 3.3 3.8.3.7.4 1.5.8 2.2 1.2 1.8 3.3 2.4 5.4 2.5 6.6.5 13.6 1.7 19.9-1.1 1.8-.8 1.4-3.4 0-4.3-2.7-1.7-5.2-3.5-6.6-6.3-1.8-3.5 0-5.3.2-8.6.1-1.7-.7-3.1-1.4-4.6-1.7-3.5-2.7-6.8-3-10.6-1.1.8-2.1 1.6-3.2 2.4 1.2.4 2.3.7 3.5 1.1 1.7.5 3-.9 3.2-2.4.1-.7.1-1.4.2-2.1-1.1.8-2.1 1.6-3.2 2.4.9.3 1.7.7 2.6 1 1.6.6 3-1 3.2-2.4 0-.5.1-.9.1-1.4-1.1.8-2.1 1.6-3.2 2.4.7.4 1.4.7 2.1 1.1.9.7 2.2.3 3-.4 2.1-1.8 3.9-1.1 6.5-.7 1.4.2 2.6-.3 3.1-1.7l.3-.9c-1.2.5-2.4 1-3.7 1.5 2.9 1.8 5.6 1.3 6.8-2-1 .6-2.1 1.2-3.1 1.7 2.6.5 4.2 1.5 5.9-1.1-1.1.3-2.3.6-3.4.9 1.2.5 2.9 1.2 3.9 1.7.3 0 .6-.1.9-.3-.1.7-.3 1.4-.4 2.1-.1 1.7.5 4 .7 5.6.7 5.1 3.4 21.7-5.9 21.2-2.1-.1-3.4 2.8-1.8 4.3 1.6 1.4 3.2 2.5 5.4 2.7 2.2.2 4-.8 6 .1 1.9.8 3.2 2.3 5.5 2 2.1-.2 2.3-1.4 3.8-2.4 3.7-2.5 7.8-1.2 9.7-6.3.3-.8.3-1.6.7-2.4.3-.6.8-1 1.1-1.7.7-1.9-.8-3.8.6-5.2 1.4-1.3.7-3.7-1.1-4.2-4.8-1.3-4.8-4.8-4.1-9.2.4-2.7.9-5.5 1.1-8.2.3-5-.8-9.9-3.3-14.2C58.5 7.5 49.5 3 39.8 2c-3.2-.3-3.2 4.7 0 5z"/><path class="st0" d="M16.8 25.9c-.3-4.2-.7-8.4-1-12.6-1.4.6-2.8 1.2-4.3 1.8 2.5 2.9 4.9 5.8 7.4 8.7 2.1 2.5 5.6-1.1 3.5-3.5-2.5-2.9-4.9-5.8-7.4-8.7-1.4-1.6-4.4-.3-4.3 1.8.3 4.2.7 8.4 1 12.6.3 3.1 5.3 3.2 5.1-.1zM44 21.7c2.7-3.3 4.7-7 5.8-11.1H45c1 3.5 1.5 7.1 1.5 10.8 0 3.2 5 3.2 5 0 0-4.1-.5-8.2-1.6-12.1-.7-2.4-4.2-2.4-4.8 0-.9 3.3-2.4 6.3-4.5 8.9-2.1 2.5 1.4 6 3.4 3.5z"/><path d="M45.2 59c-2.7.3-5.2 1.1-7.8 1.7-3.8.9-6.5.5-10.2-1-3-1.2-4.3 3.6-1.3 4.8 3.4 1.4 6.7 2.2 10.2 1.6 3-.5 6-1.8 9.1-2.1 3.2-.3 3.2-5.3 0-5z"/></svg>