<svg id="Group_7" data-name="Group 7" xmlns="http://www.w3.org/2000/svg" xmlns:xlink="http://www.w3.org/1999/xlink" width="814" height="16" viewBox="0 0 814 16">
  <defs>
    <clipPath id="clip-path">
      <rect id="Rectangle_1" data-name="Rectangle 1" width="814" height="16" fill="none"/>
    </clipPath>
  </defs>
  <g id="Group_6" data-name="Group 6" clip-path="url(#clip-path)">
    <path id="Path_9" data-name="Path 9" d="M.223,6.46C1.132,3.888,3.874,2.649,6.6,2.536a14.917,14.917,0,0,1,2.319.109,8.305,8.305,0,0,1,2.488.531,2.784,2.784,0,0,1,1.246,1.1c.055-.087.1-.184.159-.269a8.121,8.121,0,0,1,10.273-2.84,1.087,1.087,0,0,1,.5.534A12.534,12.534,0,0,1,28.4,5.39a8.982,8.982,0,0,1,1.372-1.535A11.956,11.956,0,0,1,39.383,1.07a9.673,9.673,0,0,1,6.824,4.719,17.466,17.466,0,0,1,4.48-3.669c1.629-1.006,3.4-2.132,5.434-2.12A4.518,4.518,0,0,1,59.89,1.891a1.232,1.232,0,0,1,1.335.543,6.526,6.526,0,0,1,.262.73C63.7.973,67.011.6,70.174.649A1.283,1.283,0,0,1,71.758.368a8.013,8.013,0,0,1,2.911,3.556A10.9,10.9,0,0,1,77.494,1.4C80.578-.486,85.088-.319,87.55,2.434a1.26,1.26,0,0,1,.068.106,5.115,5.115,0,0,1,1.209,1.317A8.1,8.1,0,0,1,98.982,1.164a1.087,1.087,0,0,1,.5.534A12.534,12.534,0,0,1,104.3,5.39a8.9,8.9,0,0,1,1.375-1.535,11.951,11.951,0,0,1,9.606-2.786,9.774,9.774,0,0,1,6.081,3.6,6.482,6.482,0,0,1,.441-.722c2.176-2.918,5.895-3.357,9.412-3.3A1.284,1.284,0,0,1,132.8.368a7.979,7.979,0,0,1,2.911,3.556A10.939,10.939,0,0,1,138.535,1.4c3.085-1.884,7.6-1.716,10.057,1.036a1.26,1.26,0,0,1,.068.106,5.056,5.056,0,0,1,1.254,1.4c.113-.127.212-.26.335-.38,1.906-1.846,6.565-4.113,8.476-1.1a1.26,1.26,0,0,1,1.559.43,12.045,12.045,0,0,1,1.02,1.8,7.69,7.69,0,0,1,5.283-2.151,14.918,14.918,0,0,1,2.319.109,8.306,8.306,0,0,1,2.488.531,2.8,2.8,0,0,1,1.246,1.1c.055-.087.1-.184.159-.269a8.121,8.121,0,0,1,10.274-2.84,1.087,1.087,0,0,1,.5.534A12.534,12.534,0,0,1,188.39,5.39a8.985,8.985,0,0,1,1.372-1.535,11.956,11.956,0,0,1,9.609-2.786,9.673,9.673,0,0,1,6.824,4.719,17.507,17.507,0,0,1,4.48-3.669c1.629-1.006,3.4-2.132,5.434-2.12a4.518,4.518,0,0,1,3.769,1.891,1.232,1.232,0,0,1,1.335.543,6.49,6.49,0,0,1,.262.73C223.695.973,227,.6,230.161.649a1.284,1.284,0,0,1,1.584-.281,8,8,0,0,1,2.911,3.556A10.9,10.9,0,0,1,237.481,1.4c3.084-1.884,7.6-1.716,10.057,1.036a1.259,1.259,0,0,1,.068.106,5.1,5.1,0,0,1,1.254,1.4c.113-.127.211-.26.335-.38,1.906-1.846,6.565-4.113,8.476-1.1a1.26,1.26,0,0,1,1.559.43,11.865,11.865,0,0,1,1.546,3.282A8.814,8.814,0,0,1,261.82,4.84a8.983,8.983,0,0,1,6.3-2.687,1.166,1.166,0,0,1,1.143,1.6,3.894,3.894,0,0,1,.468.475c.045-.071.083-.151.131-.22a8.121,8.121,0,0,1,10.273-2.84,1.087,1.087,0,0,1,.5.534,12.534,12.534,0,0,1,4.817,3.692,8.985,8.985,0,0,1,1.372-1.535,11.953,11.953,0,0,1,9.606-2.786,9.773,9.773,0,0,1,6.084,3.6,6.129,6.129,0,0,1,.441-.722c2.176-2.918,5.892-3.357,9.412-3.3a1.283,1.283,0,0,1,1.584-.281,8.012,8.012,0,0,1,2.911,3.556A10.9,10.9,0,0,1,319.689,1.4c3.085-1.884,7.594-1.716,10.057,1.036.028.033.043.073.068.106a5.1,5.1,0,0,1,1.254,1.4c.113-.127.212-.26.332-.38,1.909-1.846,6.567-4.113,8.476-1.1a1.263,1.263,0,0,1,1.561.43,12.045,12.045,0,0,1,1.02,1.8,7.685,7.685,0,0,1,5.283-2.151,14.946,14.946,0,0,1,2.319.109,8.306,8.306,0,0,1,2.488.531,2.811,2.811,0,0,1,1.246,1.1c.053-.087.1-.184.156-.269a8.125,8.125,0,0,1,10.276-2.84,1.1,1.1,0,0,1,.5.534,12.507,12.507,0,0,1,4.814,3.692,9,9,0,0,1,1.375-1.535,11.953,11.953,0,0,1,9.606-2.786,9.678,9.678,0,0,1,6.826,4.719,17.466,17.466,0,0,1,4.48-3.669c1.629-1.006,3.4-2.132,5.434-2.12a4.513,4.513,0,0,1,3.767,1.891,1.23,1.23,0,0,1,1.335.543,6.031,6.031,0,0,1,.262.73C404.846.973,408.152.6,411.312.649A1.287,1.287,0,0,1,412.9.368a7.99,7.99,0,0,1,2.908,3.556A10.948,10.948,0,0,1,418.635,1.4c3.082-1.884,7.594-1.716,10.057,1.036.028.033.043.073.068.106a5.135,5.135,0,0,1,1.254,1.4c.111-.127.212-.26.332-.38,1.906-1.846,6.567-4.113,8.476-1.1a1.264,1.264,0,0,1,1.561.43,11.938,11.938,0,0,1,1.546,3.282,8.969,8.969,0,0,1,1.042-1.327,8.994,8.994,0,0,1,6.3-2.687,1.164,1.164,0,0,1,1.141,1.6,3.959,3.959,0,0,1,.375.354c.02-.031.038-.068.058-.1a8.125,8.125,0,0,1,10.276-2.84,1.1,1.1,0,0,1,.5.534,12.534,12.534,0,0,1,4.817,3.692,8.776,8.776,0,0,1,1.372-1.535A11.953,11.953,0,0,1,477.42,1.07a9.767,9.767,0,0,1,6.081,3.6,6.5,6.5,0,0,1,.443-.722c2.176-2.918,5.892-3.357,9.41-3.3a1.287,1.287,0,0,1,1.586-.281,7.99,7.99,0,0,1,2.908,3.556A10.948,10.948,0,0,1,500.677,1.4c3.082-1.884,7.594-1.716,10.057,1.036.028.033.04.073.068.106a5.134,5.134,0,0,1,1.254,1.4c.111-.127.212-.26.332-.38,1.906-1.846,6.567-4.113,8.476-1.1a1.264,1.264,0,0,1,1.561.43,12.03,12.03,0,0,1,1.017,1.8,7.69,7.69,0,0,1,5.283-2.151,14.916,14.916,0,0,1,2.319.109,8.307,8.307,0,0,1,2.488.531,2.784,2.784,0,0,1,1.246,1.1c.055-.087.1-.184.159-.269a8.124,8.124,0,0,1,10.276-2.84,1.11,1.11,0,0,1,.5.534,12.545,12.545,0,0,1,4.814,3.692A8.9,8.9,0,0,1,551.9,3.855,11.951,11.951,0,0,1,561.51,1.07a9.678,9.678,0,0,1,6.826,4.719,17.454,17.454,0,0,1,4.477-3.669c1.629-1.006,3.4-2.132,5.436-2.12a4.517,4.517,0,0,1,3.767,1.891,1.23,1.23,0,0,1,1.335.543,6.041,6.041,0,0,1,.262.73C585.834.973,589.137.6,592.3.649a1.284,1.284,0,0,1,1.584-.281,7.979,7.979,0,0,1,2.911,3.556A10.938,10.938,0,0,1,599.62,1.4c3.085-1.884,7.6-1.716,10.057,1.036a1.259,1.259,0,0,1,.068.106A5.1,5.1,0,0,1,611,3.938c.111-.127.209-.26.332-.38,1.906-1.846,6.567-4.113,8.476-1.1a1.26,1.26,0,0,1,1.559.43,11.865,11.865,0,0,1,1.546,3.282,8.72,8.72,0,0,1,7.345-4.014,1.165,1.165,0,0,1,1.143,1.6,4.1,4.1,0,0,1,.471.475c.045-.071.081-.151.128-.22a8.121,8.121,0,0,1,10.273-2.84,1.087,1.087,0,0,1,.5.534,12.534,12.534,0,0,1,4.817,3.692,8.985,8.985,0,0,1,1.372-1.535,11.956,11.956,0,0,1,9.609-2.786,9.774,9.774,0,0,1,6.081,3.6,6.483,6.483,0,0,1,.441-.722c2.176-2.918,5.895-3.357,9.412-3.3a1.284,1.284,0,0,1,1.584-.281A8,8,0,0,1,679,3.924,10.9,10.9,0,0,1,681.828,1.4c3.085-1.884,7.6-1.716,10.057,1.036a1.243,1.243,0,0,1,.068.106,5.054,5.054,0,0,1,1.254,1.4c.113-.127.212-.26.335-.38,1.906-1.846,6.565-4.113,8.476-1.1a1.261,1.261,0,0,1,1.559.43,12.046,12.046,0,0,1,1.02,1.8,7.69,7.69,0,0,1,5.283-2.151,14.917,14.917,0,0,1,2.319.109,8.305,8.305,0,0,1,2.488.531,2.8,2.8,0,0,1,1.246,1.1c.055-.087.1-.184.156-.269a8.125,8.125,0,0,1,10.276-2.84,1.086,1.086,0,0,1,.5.534,12.534,12.534,0,0,1,4.817,3.692,8.878,8.878,0,0,1,1.372-1.535,11.953,11.953,0,0,1,9.606-2.786,9.673,9.673,0,0,1,6.826,4.719,17.465,17.465,0,0,1,4.48-3.669C755.6,1.114,757.369-.012,759.4,0a4.521,4.521,0,0,1,3.769,1.891,1.232,1.232,0,0,1,1.335.543,6.026,6.026,0,0,1,.259.73C766.985.973,770.291.6,773.454.649a1.283,1.283,0,0,1,1.584-.281,8.013,8.013,0,0,1,2.911,3.556A10.9,10.9,0,0,1,780.774,1.4c3.085-1.884,7.594-1.716,10.057,1.036.028.033.043.073.068.106a5.1,5.1,0,0,1,1.254,1.4c.113-.127.211-.26.335-.38,1.906-1.846,6.564-4.113,8.473-1.1a1.263,1.263,0,0,1,1.561.43,11.935,11.935,0,0,1,1.546,3.282,8.822,8.822,0,0,1,1.045-1.327,8.983,8.983,0,0,1,6.3-2.687,1.167,1.167,0,0,1,1.143,1.6,4.838,4.838,0,0,1,.917,5.7,8.629,8.629,0,0,1-5.27,4.214,4.7,4.7,0,0,1-3.54-.352,3.469,3.469,0,0,1-.708-.55,3.686,3.686,0,0,1-1.045,1.358,5.03,5.03,0,0,1-3.926.807,14.351,14.351,0,0,1-3.86-1.27,9.452,9.452,0,0,1-3.014-2.165,6.215,6.215,0,0,1-2.521,3.744c-1.564.923-3.515.685-5.22.307-2.7-.6-5.95-1.591-7.461-3.877a10.315,10.315,0,0,1-3.724,3.18,7.708,7.708,0,0,1-5.2.777,6.926,6.926,0,0,1-3.855-2.552,7.082,7.082,0,0,1-1.06-2.026c-.149.217-.3.437-.458.645-2.11,2.715-5.421,4.743-9.135,4.236a6.621,6.621,0,0,1-5.4-4.2c-1.642,1.577-4.225,2.347-6.559,2.883-3.394.779-7.438.791-9.893-1.929-.07-.08-.108-.165-.171-.246a5.055,5.055,0,0,1-.491.479,13.671,13.671,0,0,1-5.263,2.023c-3.414.77-8.241,1.768-10.311-1.731a6.622,6.622,0,0,1-.514-1.093c-.138.118-.272.238-.423.345-2.246,1.556-5.454,1.18-7.763-.035a7.74,7.74,0,0,1-1.256-.84,4.28,4.28,0,0,1-1.463,2.538,5.03,5.03,0,0,1-3.926.807,14.351,14.351,0,0,1-3.86-1.27,9.414,9.414,0,0,1-3.012-2.165,6.219,6.219,0,0,1-2.523,3.744c-1.564.923-3.515.685-5.22.307-2.7-.6-5.95-1.591-7.458-3.877a10.344,10.344,0,0,1-3.727,3.18,7.705,7.705,0,0,1-5.2.777,6.926,6.926,0,0,1-3.855-2.552,7.015,7.015,0,0,1-.9-1.65c-1.609,1.785-4.371,2.618-6.849,3.187-3.394.779-7.441.791-9.893-1.929-.07-.08-.108-.165-.174-.246a4.785,4.785,0,0,1-.491.479,13.656,13.656,0,0,1-5.263,2.023c-3.412.77-8.239,1.768-10.311-1.731a6.687,6.687,0,0,1-.655-1.615,8.94,8.94,0,0,1-3.588,2.073,4.7,4.7,0,0,1-3.54-.352,3.488,3.488,0,0,1-.71-.55,3.7,3.7,0,0,1-1.042,1.358,5.038,5.038,0,0,1-3.928.807,14.352,14.352,0,0,1-3.86-1.27,9.441,9.441,0,0,1-3.012-2.165,6.219,6.219,0,0,1-2.523,3.744c-1.564.923-3.515.685-5.22.307-2.7-.6-5.95-1.591-7.458-3.877a10.323,10.323,0,0,1-3.727,3.18,7.7,7.7,0,0,1-5.2.777,6.935,6.935,0,0,1-3.855-2.552,7.075,7.075,0,0,1-1.058-2.026c-.151.217-.3.437-.458.645-2.11,2.715-5.424,4.743-9.138,4.236a6.621,6.621,0,0,1-5.4-4.2c-1.642,1.577-4.228,2.347-6.559,2.883-3.394.779-7.441.791-9.893-1.929-.071-.08-.108-.165-.174-.246a5.025,5.025,0,0,1-.488.479,13.683,13.683,0,0,1-5.265,2.023c-3.412.77-8.239,1.768-10.311-1.731a6.622,6.622,0,0,1-.514-1.093,5.3,5.3,0,0,1-.423.345c-2.244,1.556-5.454,1.18-7.763-.035a7.851,7.851,0,0,1-1.257-.84,4.276,4.276,0,0,1-1.46,2.538,5.038,5.038,0,0,1-3.928.807,14.352,14.352,0,0,1-3.86-1.27,9.469,9.469,0,0,1-3.012-2.165,6.226,6.226,0,0,1-2.521,3.744c-1.566.923-3.518.685-5.222.307-2.7-.6-5.95-1.591-7.458-3.877a10.323,10.323,0,0,1-3.727,3.18,7.7,7.7,0,0,1-5.2.777,6.792,6.792,0,0,1-4.759-4.2c-1.612,1.785-4.374,2.618-6.852,3.187-3.394.779-7.438.791-9.893-1.929-.071-.08-.108-.165-.174-.246a5.016,5.016,0,0,1-.489.479,13.671,13.671,0,0,1-5.263,2.023c-3.414.77-8.241,1.768-10.311-1.731a6.54,6.54,0,0,1-.622-1.487,8.931,8.931,0,0,1-3.457,1.945,4.7,4.7,0,0,1-3.54-.352,3.47,3.47,0,0,1-.708-.55,3.685,3.685,0,0,1-1.045,1.358,5.036,5.036,0,0,1-3.928.807,14.352,14.352,0,0,1-3.86-1.27,9.469,9.469,0,0,1-3.012-2.165,6.226,6.226,0,0,1-2.521,3.744c-1.566.923-3.515.685-5.22.307-2.7-.6-5.953-1.591-7.461-3.877a10.323,10.323,0,0,1-3.727,3.18,7.7,7.7,0,0,1-5.2.777,6.941,6.941,0,0,1-3.858-2.552,7.138,7.138,0,0,1-1.058-2.026c-.151.217-.3.437-.458.645-2.11,2.715-5.424,4.743-9.138,4.236a6.621,6.621,0,0,1-5.4-4.2c-1.642,1.577-4.225,2.347-6.559,2.883-3.394.779-7.441.791-9.893-1.929-.07-.08-.108-.165-.174-.246a5.03,5.03,0,0,1-.488.479,13.671,13.671,0,0,1-5.263,2.023c-3.414.77-8.241,1.768-10.311-1.731a6.423,6.423,0,0,1-.514-1.093c-.141.118-.272.238-.423.345-2.246,1.556-5.457,1.18-7.766-.035a7.851,7.851,0,0,1-1.257-.84,4.276,4.276,0,0,1-1.46,2.538,5.032,5.032,0,0,1-3.926.807,14.322,14.322,0,0,1-3.86-1.27,9.452,9.452,0,0,1-3.014-2.165,6.215,6.215,0,0,1-2.521,3.744c-1.566.923-3.515.685-5.22.307-2.7-.6-5.95-1.591-7.461-3.877a10.323,10.323,0,0,1-3.727,3.18,7.7,7.7,0,0,1-5.2.777,6.811,6.811,0,0,1-4.759-4.2c-1.612,1.785-4.371,2.618-6.852,3.187-3.392.779-7.438.791-9.893-1.929-.07-.08-.108-.165-.171-.246a5.048,5.048,0,0,1-.491.479,13.655,13.655,0,0,1-5.263,2.023c-3.412.77-8.239,1.768-10.311-1.731a6.687,6.687,0,0,1-.655-1.615,8.932,8.932,0,0,1-3.591,2.073,4.7,4.7,0,0,1-3.54-.352,3.471,3.471,0,0,1-.708-.55,3.7,3.7,0,0,1-1.042,1.358,5.038,5.038,0,0,1-3.928.807,14.352,14.352,0,0,1-3.86-1.27,9.414,9.414,0,0,1-3.012-2.165,6.219,6.219,0,0,1-2.523,3.744c-1.564.923-3.515.685-5.22.307-2.7-.6-5.95-1.591-7.461-3.877a10.315,10.315,0,0,1-3.724,3.18,7.705,7.705,0,0,1-5.2.777,6.927,6.927,0,0,1-3.855-2.552,7.014,7.014,0,0,1-1.058-2.026c-.151.217-.3.437-.461.645-2.108,2.715-5.421,4.743-9.135,4.236a6.624,6.624,0,0,1-5.4-4.2c-1.639,1.577-4.225,2.347-6.559,2.883-3.392.779-7.438.791-9.893-1.929-.07-.08-.108-.165-.171-.246a5.048,5.048,0,0,1-.491.479,13.655,13.655,0,0,1-5.263,2.023c-3.412.77-8.239,1.768-10.311-1.731a6.622,6.622,0,0,1-.514-1.093c-.138.118-.272.238-.423.345-2.246,1.556-5.454,1.18-7.763-.035a7.849,7.849,0,0,1-1.257-.84,4.276,4.276,0,0,1-1.46,2.538,5.038,5.038,0,0,1-3.928.807,14.351,14.351,0,0,1-3.86-1.27,9.414,9.414,0,0,1-3.012-2.165,6.219,6.219,0,0,1-2.523,3.744c-1.564.923-3.515.685-5.22.307-2.7-.6-5.95-1.591-7.458-3.877a10.345,10.345,0,0,1-3.727,3.18,7.7,7.7,0,0,1-5.2.777,6.794,6.794,0,0,1-4.757-4.2c-1.612,1.785-4.374,2.618-6.852,3.187-3.394.779-7.441.791-9.893-1.929-.071-.08-.108-.165-.174-.246a4.785,4.785,0,0,1-.491.479,13.655,13.655,0,0,1-5.263,2.023c-3.374.763-8.123,1.731-10.231-1.634a4.821,4.821,0,0,1-1.773,1.934c-1.564.923-3.515.685-5.22.307-2.7-.6-5.95-1.591-7.461-3.877a10.315,10.315,0,0,1-3.724,3.18,7.705,7.705,0,0,1-5.2.777,6.926,6.926,0,0,1-3.855-2.552,7.016,7.016,0,0,1-1.058-2.026c-.151.217-.3.437-.461.645C57.218,14.4,53.9,16.43,50.191,15.922a6.62,6.62,0,0,1-5.4-4.2c-1.639,1.577-4.225,2.347-6.56,2.883-3.392.779-7.438.791-9.893-1.929-.07-.08-.106-.165-.171-.246a5.04,5.04,0,0,1-.491.479,13.655,13.655,0,0,1-5.263,2.023C19,15.7,14.175,16.7,12.1,13.2a6.617,6.617,0,0,1-.514-1.093c-.138.118-.272.238-.423.345C8.92,14.01,5.712,13.634,3.4,12.419,1.188,11.255-.653,8.934.223,6.46m805.406,4.507a1.255,1.255,0,0,0,.463.4,1.831,1.831,0,0,0,.967.123,5.33,5.33,0,0,0,2.213-.968,6.187,6.187,0,0,0,1.594-1.511,3.165,3.165,0,0,0,.632-2.12l-.01-.118a2.84,2.84,0,0,0-.063-.283,2.209,2.209,0,0,0-.076-.25c-.008-.026-.055-.135-.065-.165a2.036,2.036,0,0,0-.713-.845.911.911,0,0,1-.32-.574,6.328,6.328,0,0,0-2.606,1.178A5.7,5.7,0,0,0,805.455,9.2a3.364,3.364,0,0,0-.065.911,1.792,1.792,0,0,0,.239.855m-11.85-1.18a9.609,9.609,0,0,0,5.177,2.732,2.951,2.951,0,0,0,2.226-.123,2.538,2.538,0,0,0,.846-1.912,9.452,9.452,0,0,0-1.642-6.337,1.185,1.185,0,0,1-1.551-.446c-.375-.619-1.367-.307-1.972-.073a7.815,7.815,0,0,0-2.528,1.537,3.29,3.29,0,0,0-.557,4.623m-10.422,3.072a11.165,11.165,0,0,0,4.054.642,2.557,2.557,0,0,0,2.027-1.905c.808-2.134,2.251-6.124-.577-7.527a1.078,1.078,0,0,1-.509-.51,5.454,5.454,0,0,0-5.293-.649,7.636,7.636,0,0,0-4.432,5.232c-.572,2.774,2.367,4.094,4.729,4.717M765.57,10.629a4.565,4.565,0,0,0,2.2,2.4,4.277,4.277,0,0,0,3.4.1,7.517,7.517,0,0,0,4.593-4.573,5.5,5.5,0,0,0-1.355-5.517c-2.478-.113-5.293-.22-7.34,1.284a5.455,5.455,0,0,0-1.5,6.311m-12.011,2.92c2.541.543,5.011-.925,6.567-2.689,1.5-1.7,3.092-4.509,2.339-6.811a1.307,1.307,0,0,1-1.292-.843c-.307-.727-1.445-.916-2.166-.829a9.132,9.132,0,0,0-3.47,1.6c-2.045,1.254-4.366,2.694-5.056,5.033-.63,2.139.823,4.058,3.077,4.54m-20.572-3.2c1.037,2.266,4.167,2.6,6.424,2.259a23.681,23.681,0,0,0,4.87-1.263c1.234-.475,2.709-1.367,2.888-2.734a1.391,1.391,0,0,1,.453-.874,6.846,6.846,0,0,0-4.167-4.028,8.8,8.8,0,0,0-7.131.777,7.326,7.326,0,0,0-3.457,3.865c.005.04.02.078.025.12a4.89,4.89,0,0,1-.053,1.343,2.82,2.82,0,0,0,.149.534m-15.707,1.062a2.687,2.687,0,0,0,2.181,1.879,14.792,14.792,0,0,0,4.736-.458c2.07-.413,5.656-.98,6.116-3.324a5.09,5.09,0,0,1,.038-.852c-.239-2.807-3.379-4.339-5.814-5.418a1.057,1.057,0,0,1-.483-.413,5.611,5.611,0,0,0-5.441,1.9,7.171,7.171,0,0,0-1.332,6.689M706.155,8.858A4.494,4.494,0,0,0,707.8,10.3a5.426,5.426,0,0,0,4.835.441,3,3,0,0,0,1.455-1.511,4.535,4.535,0,0,0,.2-.8c0-.085.005-.172,0-.257,0-.007-.05-.364-.018-.2-.018-.083-.04-.168-.065-.25-.01-.033-.138-.328-.078-.208A1.357,1.357,0,0,1,714,7.029a1.11,1.11,0,0,1-.2-1.587.212.212,0,0,0-.088-.085,3.442,3.442,0,0,0-1.022-.286,13.966,13.966,0,0,0-2.994-.165c-1.559.1-3.246.8-3.757,2.181a1.894,1.894,0,0,0,.224,1.771m-11.321.928a9.616,9.616,0,0,0,5.18,2.732,2.946,2.946,0,0,0,2.223-.123,2.529,2.529,0,0,0,.846-1.912,9.452,9.452,0,0,0-1.642-6.337A1.186,1.186,0,0,1,699.89,3.7c-.375-.619-1.367-.307-1.969-.073a7.8,7.8,0,0,0-2.531,1.537,3.29,3.29,0,0,0-.557,4.623m-10.42,3.072a11.16,11.16,0,0,0,4.052.642,2.557,2.557,0,0,0,2.027-1.905c.811-2.134,2.251-6.124-.577-7.527a1.06,1.06,0,0,1-.506-.51,5.459,5.459,0,0,0-5.3-.649,7.637,7.637,0,0,0-4.432,5.232c-.569,2.774,2.367,4.094,4.731,4.717m-17.79-2.229a4.575,4.575,0,0,0,2.2,2.4,4.277,4.277,0,0,0,3.4.1,7.517,7.517,0,0,0,4.593-4.573,5.5,5.5,0,0,0-1.355-5.517c-2.475-.113-5.293-.22-7.34,1.284a5.455,5.455,0,0,0-1.5,6.311M648.9,10.35c1.037,2.266,4.17,2.6,6.426,2.259a23.7,23.7,0,0,0,4.867-1.263c1.234-.475,2.712-1.367,2.891-2.734a1.389,1.389,0,0,1,.451-.874,6.84,6.84,0,0,0-4.167-4.028,8.8,8.8,0,0,0-7.131.777,7.33,7.33,0,0,0-3.457,3.862c.005.042.023.08.025.123a4.89,4.89,0,0,1-.053,1.343,2.82,2.82,0,0,0,.149.534M633.19,11.413a2.693,2.693,0,0,0,2.183,1.879,14.777,14.777,0,0,0,4.734-.458c2.07-.413,5.656-.98,6.116-3.324a5.08,5.08,0,0,1,.04-.852c-.242-2.807-3.382-4.339-5.814-5.418a1.052,1.052,0,0,1-.486-.413,5.609,5.609,0,0,0-5.439,1.9,7.165,7.165,0,0,0-1.335,6.689m-8.712-.446a1.249,1.249,0,0,0,.461.4,1.834,1.834,0,0,0,.967.123,5.3,5.3,0,0,0,2.213-.968,6.146,6.146,0,0,0,1.594-1.511,3.168,3.168,0,0,0,.635-2.12c0-.009-.01-.092-.01-.118-.018-.094-.038-.189-.063-.283s-.048-.168-.076-.25c-.01-.026-.055-.137-.068-.165a2.036,2.036,0,0,0-.713-.845.924.924,0,0,1-.32-.574,6.318,6.318,0,0,0-2.6,1.178A5.7,5.7,0,0,0,624.3,9.2a3.362,3.362,0,0,0-.066.911,1.794,1.794,0,0,0,.242.855m-11.85-1.18a9.6,9.6,0,0,0,5.177,2.732,2.946,2.946,0,0,0,2.223-.123,2.53,2.53,0,0,0,.846-1.912,9.464,9.464,0,0,0-1.639-6.337,1.188,1.188,0,0,1-1.554-.446c-.375-.619-1.367-.307-1.969-.073a7.826,7.826,0,0,0-2.531,1.537,3.29,3.29,0,0,0-.554,4.623m-10.422,3.072a11.165,11.165,0,0,0,4.054.642,2.557,2.557,0,0,0,2.024-1.905c.811-2.134,2.251-6.124-.577-7.527a1.061,1.061,0,0,1-.506-.51,5.459,5.459,0,0,0-5.3-.649,7.649,7.649,0,0,0-4.432,5.232c-.569,2.774,2.367,4.094,4.731,4.717m-17.79-2.229a4.575,4.575,0,0,0,2.2,2.4,4.283,4.283,0,0,0,3.407.1,7.52,7.52,0,0,0,4.59-4.573,5.492,5.492,0,0,0-1.355-5.517c-2.475-.113-5.293-.22-7.34,1.284a5.459,5.459,0,0,0-1.5,6.311m-12.011,2.92c2.543.543,5.011-.925,6.567-2.689,1.5-1.7,3.095-4.509,2.339-6.811a1.312,1.312,0,0,1-1.292-.843c-.3-.727-1.445-.916-2.165-.829a9.139,9.139,0,0,0-3.467,1.6c-2.045,1.254-4.369,2.694-5.056,5.033-.632,2.139.823,4.058,3.075,4.54m-20.572-3.2c1.037,2.266,4.17,2.6,6.426,2.259a23.765,23.765,0,0,0,4.87-1.263c1.234-.475,2.709-1.367,2.888-2.734a1.389,1.389,0,0,1,.451-.874A6.84,6.84,0,0,0,562.3,3.711a8.8,8.8,0,0,0-7.131.777,7.336,7.336,0,0,0-3.457,3.865c.005.04.023.078.025.12a4.993,4.993,0,0,1-.05,1.343,2.628,2.628,0,0,0,.146.534m-15.707,1.062a2.693,2.693,0,0,0,2.183,1.879,14.777,14.777,0,0,0,4.734-.458c2.072-.413,5.655-.98,6.116-3.324a5.366,5.366,0,0,1,.04-.852c-.242-2.807-3.382-4.339-5.814-5.418a1.065,1.065,0,0,1-.486-.413,5.609,5.609,0,0,0-5.439,1.9,7.172,7.172,0,0,0-1.335,6.689M525,8.858a4.5,4.5,0,0,0,1.649,1.44,5.426,5.426,0,0,0,4.835.441,3.011,3.011,0,0,0,1.455-1.511,4.532,4.532,0,0,0,.2-.8c0-.085.005-.172,0-.257,0-.007-.05-.364-.015-.2a2.322,2.322,0,0,0-.068-.25c-.008-.033-.139-.328-.076-.208a1.362,1.362,0,0,1-.138-.486,1.112,1.112,0,0,1-.2-1.587.228.228,0,0,0-.088-.085,3.463,3.463,0,0,0-1.022-.286,13.98,13.98,0,0,0-3-.165c-1.559.1-3.246.8-3.754,2.181A1.893,1.893,0,0,0,525,8.858m-11.318.928a9.6,9.6,0,0,0,5.177,2.732,2.945,2.945,0,0,0,2.223-.123,2.53,2.53,0,0,0,.846-1.912,9.45,9.45,0,0,0-1.639-6.337,1.188,1.188,0,0,1-1.554-.446c-.375-.619-1.367-.307-1.969-.073a7.852,7.852,0,0,0-2.531,1.537,3.29,3.29,0,0,0-.554,4.623M503.26,12.858a11.165,11.165,0,0,0,4.054.642,2.557,2.557,0,0,0,2.025-1.905c.811-2.134,2.254-6.124-.577-7.527a1.06,1.06,0,0,1-.506-.51,5.459,5.459,0,0,0-5.3-.649,7.639,7.639,0,0,0-4.429,5.232c-.572,2.774,2.364,4.094,4.729,4.717m-17.79-2.229a4.585,4.585,0,0,0,2.2,2.4,4.283,4.283,0,0,0,3.407.1,7.513,7.513,0,0,0,4.59-4.573,5.5,5.5,0,0,0-1.352-5.517c-2.478-.113-5.3-.22-7.343,1.284a5.463,5.463,0,0,0-1.5,6.311m-17.724-.279c1.035,2.266,4.167,2.6,6.423,2.259a23.723,23.723,0,0,0,4.87-1.263c1.234-.475,2.709-1.367,2.888-2.734a1.391,1.391,0,0,1,.453-.874,6.844,6.844,0,0,0-4.17-4.028,8.79,8.79,0,0,0-7.129.777,7.316,7.316,0,0,0-3.457,3.865c.005.04.02.078.025.12a4.889,4.889,0,0,1-.053,1.343,2.644,2.644,0,0,0,.149.534m-15.707,1.062a2.686,2.686,0,0,0,2.181,1.879,14.77,14.77,0,0,0,4.734-.458c2.072-.413,5.655-.98,6.116-3.324a5.373,5.373,0,0,1,.04-.852c-.242-2.807-3.382-4.339-5.814-5.418a1.057,1.057,0,0,1-.483-.413,5.611,5.611,0,0,0-5.441,1.9,7.171,7.171,0,0,0-1.332,6.689m-8.549-.446a1.268,1.268,0,0,0,.461.4,1.837,1.837,0,0,0,.967.123,5.3,5.3,0,0,0,2.213-.968,6.146,6.146,0,0,0,1.594-1.511,3.167,3.167,0,0,0,.635-2.12l-.01-.118c-.018-.094-.038-.189-.063-.283s-.048-.168-.076-.25c-.01-.026-.055-.135-.065-.165a2.055,2.055,0,0,0-.713-.845.912.912,0,0,1-.32-.574,6.314,6.314,0,0,0-2.606,1.178A5.685,5.685,0,0,0,443.316,9.2a3.264,3.264,0,0,0-.065.911,1.792,1.792,0,0,0,.239.855m-11.85-1.18a9.6,9.6,0,0,0,5.177,2.732,2.944,2.944,0,0,0,2.223-.123,2.541,2.541,0,0,0,.849-1.912,9.466,9.466,0,0,0-1.642-6.337,1.189,1.189,0,0,1-1.554-.446c-.373-.619-1.367-.307-1.969-.073a7.826,7.826,0,0,0-2.531,1.537,3.29,3.29,0,0,0-.554,4.623m-10.422,3.072a11.165,11.165,0,0,0,4.054.642,2.564,2.564,0,0,0,2.027-1.905c.808-2.134,2.251-6.124-.577-7.527a1.056,1.056,0,0,1-.509-.51,5.458,5.458,0,0,0-5.3-.649,7.639,7.639,0,0,0-4.429,5.232c-.572,2.774,2.364,4.094,4.729,4.717m-17.79-2.229a4.585,4.585,0,0,0,2.2,2.4,4.283,4.283,0,0,0,3.407.1,7.524,7.524,0,0,0,4.593-4.573,5.5,5.5,0,0,0-1.355-5.517c-2.478-.113-5.3-.22-7.343,1.284a5.463,5.463,0,0,0-1.5,6.311m-12.011,2.92c2.543.543,5.011-.925,6.57-2.689,1.5-1.7,3.092-4.509,2.337-6.811a1.312,1.312,0,0,1-1.292-.843c-.3-.727-1.445-.916-2.163-.829a9.132,9.132,0,0,0-3.47,1.6c-2.045,1.254-4.369,2.694-5.056,5.033-.63,2.139.823,4.058,3.074,4.54m-20.572-3.2c1.037,2.266,4.17,2.6,6.426,2.259a23.723,23.723,0,0,0,4.87-1.263c1.234-.475,2.709-1.367,2.888-2.734a1.379,1.379,0,0,1,.453-.874,6.844,6.844,0,0,0-4.17-4.028,8.8,8.8,0,0,0-7.131.777,7.325,7.325,0,0,0-3.455,3.862c.005.042.02.08.025.123a5.1,5.1,0,0,1-.053,1.343,2.806,2.806,0,0,0,.146.534m-15.707,1.062a2.693,2.693,0,0,0,2.183,1.879,14.8,14.8,0,0,0,4.736-.458c2.07-.413,5.653-.98,6.114-3.324a5.366,5.366,0,0,1,.04-.852c-.239-2.807-3.382-4.339-5.814-5.418a1.078,1.078,0,0,1-.486-.413,5.609,5.609,0,0,0-5.439,1.9,7.172,7.172,0,0,0-1.335,6.689M344.016,8.858a4.494,4.494,0,0,0,1.647,1.44,5.426,5.426,0,0,0,4.835.441,3,3,0,0,0,1.455-1.511,4.541,4.541,0,0,0,.2-.8c0-.085.005-.172,0-.257,0-.007-.048-.364-.015-.2-.018-.083-.04-.168-.065-.25-.01-.033-.139-.328-.078-.208a1.358,1.358,0,0,1-.136-.486,1.11,1.11,0,0,1-.2-1.587.212.212,0,0,0-.088-.085,3.442,3.442,0,0,0-1.022-.286,13.966,13.966,0,0,0-2.994-.165c-1.559.1-3.246.8-3.757,2.181a1.894,1.894,0,0,0,.224,1.771m-11.321.928a9.6,9.6,0,0,0,5.177,2.732,2.951,2.951,0,0,0,2.226-.123,2.538,2.538,0,0,0,.846-1.912A9.452,9.452,0,0,0,339.3,4.146a1.189,1.189,0,0,1-1.554-.446c-.373-.619-1.367-.307-1.969-.073a7.854,7.854,0,0,0-2.531,1.537,3.292,3.292,0,0,0-.554,4.623m-10.422,3.072a11.164,11.164,0,0,0,4.054.642,2.557,2.557,0,0,0,2.027-1.905c.808-2.134,2.251-6.124-.577-7.527a1.067,1.067,0,0,1-.509-.51,5.458,5.458,0,0,0-5.3-.649,7.639,7.639,0,0,0-4.429,5.232c-.572,2.774,2.364,4.094,4.729,4.717m-17.787-2.229a4.565,4.565,0,0,0,2.2,2.4,4.277,4.277,0,0,0,3.4.1,7.524,7.524,0,0,0,4.593-4.573,5.5,5.5,0,0,0-1.355-5.517c-2.478-.113-5.293-.22-7.34,1.284a5.455,5.455,0,0,0-1.5,6.311m-17.727-.279c1.037,2.266,4.167,2.6,6.423,2.259a23.682,23.682,0,0,0,4.87-1.263c1.234-.475,2.709-1.367,2.888-2.734a1.391,1.391,0,0,1,.453-.874,6.838,6.838,0,0,0-4.17-4.028,8.79,8.79,0,0,0-7.129.777,7.329,7.329,0,0,0-3.457,3.862c.005.042.02.08.025.123a4.893,4.893,0,0,1-.053,1.343,2.811,2.811,0,0,0,.149.534m-15.707,1.062a2.687,2.687,0,0,0,2.181,1.879,14.793,14.793,0,0,0,4.736-.458c2.07-.413,5.655-.98,6.116-3.324a5.364,5.364,0,0,1,.038-.852c-.239-2.807-3.379-4.339-5.814-5.418a1.058,1.058,0,0,1-.483-.413,5.613,5.613,0,0,0-5.441,1.9,7.171,7.171,0,0,0-1.332,6.689m-8.712-.446a1.23,1.23,0,0,0,.461.4,1.834,1.834,0,0,0,.967.123,5.3,5.3,0,0,0,2.213-.968,6.147,6.147,0,0,0,1.594-1.511,3.181,3.181,0,0,0,.635-2.12c0-.009-.01-.092-.013-.118-.015-.094-.038-.189-.06-.283s-.048-.168-.078-.25c-.008-.026-.055-.135-.065-.165a2.036,2.036,0,0,0-.713-.845.912.912,0,0,1-.32-.574,6.317,6.317,0,0,0-2.6,1.178A5.7,5.7,0,0,0,262.163,9.2a3.364,3.364,0,0,0-.065.911,1.794,1.794,0,0,0,.242.855m-11.852-1.18a9.616,9.616,0,0,0,5.18,2.732,2.946,2.946,0,0,0,2.223-.123,2.539,2.539,0,0,0,.846-1.912,9.452,9.452,0,0,0-1.642-6.337,1.185,1.185,0,0,1-1.551-.446c-.375-.619-1.367-.307-1.969-.073a7.827,7.827,0,0,0-2.531,1.537,3.29,3.29,0,0,0-.556,4.623m-10.419,3.072a11.151,11.151,0,0,0,4.051.642,2.557,2.557,0,0,0,2.027-1.905c.811-2.134,2.251-6.124-.577-7.527a1.061,1.061,0,0,1-.506-.51,5.459,5.459,0,0,0-5.3-.649,7.637,7.637,0,0,0-4.432,5.232c-.569,2.774,2.367,4.094,4.731,4.717m-17.79-2.229a4.575,4.575,0,0,0,2.2,2.4,4.277,4.277,0,0,0,3.4.1,7.517,7.517,0,0,0,4.593-4.573,5.5,5.5,0,0,0-1.355-5.517c-2.478-.113-5.293-.22-7.34,1.284a5.455,5.455,0,0,0-1.5,6.311m-12.011,2.92c2.541.543,5.011-.925,6.567-2.689,1.5-1.7,3.092-4.509,2.339-6.811a1.31,1.31,0,0,1-1.292-.843c-.307-.727-1.445-.916-2.165-.829a9.167,9.167,0,0,0-3.47,1.6c-2.042,1.254-4.366,2.694-5.056,5.033-.629,2.139.823,4.058,3.077,4.54m-20.572-3.2c1.037,2.266,4.167,2.6,6.426,2.259a23.7,23.7,0,0,0,4.867-1.263c1.234-.475,2.712-1.367,2.888-2.734a1.4,1.4,0,0,1,.453-.874,6.84,6.84,0,0,0-4.167-4.028,8.8,8.8,0,0,0-7.131.777,7.326,7.326,0,0,0-3.457,3.865c.005.04.02.078.025.12a4.893,4.893,0,0,1-.053,1.343,2.82,2.82,0,0,0,.149.534m-15.707,1.062a2.69,2.69,0,0,0,2.183,1.879,14.777,14.777,0,0,0,4.734-.458c2.07-.413,5.656-.98,6.116-3.324a5.676,5.676,0,0,1,.038-.852c-.239-2.807-3.379-4.339-5.812-5.418a1.052,1.052,0,0,1-.486-.413,5.609,5.609,0,0,0-5.439,1.9,7.165,7.165,0,0,0-1.335,6.689M162.862,8.858a4.514,4.514,0,0,0,1.647,1.44,5.431,5.431,0,0,0,4.837.441A3.006,3.006,0,0,0,170.8,9.229a4.325,4.325,0,0,0,.2-.8c0-.085.005-.172,0-.257,0-.007-.05-.364-.018-.2-.018-.083-.04-.168-.065-.25-.01-.033-.138-.328-.078-.208a1.357,1.357,0,0,1-.136-.486,1.108,1.108,0,0,1-.2-1.587.219.219,0,0,0-.091-.085,3.448,3.448,0,0,0-1.02-.286,14,14,0,0,0-3-.165c-1.559.1-3.246.8-3.757,2.181a1.9,1.9,0,0,0,.224,1.771m-11.318.928a9.6,9.6,0,0,0,5.177,2.732,2.945,2.945,0,0,0,2.223-.123,2.529,2.529,0,0,0,.846-1.912,9.452,9.452,0,0,0-1.642-6.337A1.186,1.186,0,0,1,156.6,3.7c-.375-.619-1.367-.307-1.969-.073A7.826,7.826,0,0,0,152.1,5.163a3.288,3.288,0,0,0-.554,4.623m-10.422,3.072a11.165,11.165,0,0,0,4.054.642,2.557,2.557,0,0,0,2.024-1.905c.811-2.134,2.251-6.124-.577-7.527a1.06,1.06,0,0,1-.506-.51,5.459,5.459,0,0,0-5.3-.649,7.637,7.637,0,0,0-4.432,5.232c-.569,2.774,2.367,4.094,4.731,4.717m-17.79-2.229a4.574,4.574,0,0,0,2.2,2.4,4.283,4.283,0,0,0,3.407.1,7.519,7.519,0,0,0,4.59-4.573,5.5,5.5,0,0,0-1.355-5.517c-2.475-.113-5.293-.22-7.34,1.284a5.455,5.455,0,0,0-1.5,6.311M105.6,10.35c1.037,2.266,4.17,2.6,6.426,2.259a23.66,23.66,0,0,0,4.867-1.263c1.234-.475,2.712-1.367,2.891-2.734a1.379,1.379,0,0,1,.453-.874,6.844,6.844,0,0,0-4.17-4.028,8.8,8.8,0,0,0-7.131.777,7.336,7.336,0,0,0-3.457,3.865c.005.04.023.078.025.12a4.993,4.993,0,0,1-.05,1.343,2.628,2.628,0,0,0,.146.534M89.9,11.413a2.693,2.693,0,0,0,2.183,1.879,14.777,14.777,0,0,0,4.734-.458c2.072-.413,5.656-.98,6.116-3.324a5.366,5.366,0,0,1,.04-.852c-.242-2.807-3.382-4.339-5.814-5.418a1.064,1.064,0,0,1-.486-.413,5.609,5.609,0,0,0-5.439,1.9A7.172,7.172,0,0,0,89.9,11.413m-9.82,1.445a11.169,11.169,0,0,0,4.057.642,2.557,2.557,0,0,0,2.024-1.905,19.256,19.256,0,0,0,.924-2.977c.015-.182.05-.361.078-.543.232-1.627,0-3.223-1.579-4.006a1.06,1.06,0,0,1-.506-.51,5.459,5.459,0,0,0-5.3-.649,7.636,7.636,0,0,0-4.432,5.232c-.569,2.774,2.367,4.094,4.729,4.717M62.29,10.629a4.575,4.575,0,0,0,2.2,2.4,4.277,4.277,0,0,0,3.4.1,7.517,7.517,0,0,0,4.593-4.573,5.5,5.5,0,0,0-1.355-5.517c-2.475-.113-5.293-.22-7.34,1.284a5.455,5.455,0,0,0-1.5,6.311m-12.011,2.92c2.541.543,5.011-.925,6.567-2.689,1.5-1.7,3.092-4.509,2.339-6.811a1.308,1.308,0,0,1-1.292-.843c-.307-.727-1.445-.916-2.166-.829a9.167,9.167,0,0,0-3.47,1.6C50.216,5.23,47.892,6.67,47.2,9.009c-.629,2.139.823,4.058,3.077,4.54m-20.572-3.2c1.037,2.266,4.167,2.6,6.426,2.259A23.7,23.7,0,0,0,41,11.347c1.234-.475,2.712-1.367,2.888-2.734a1.392,1.392,0,0,1,.453-.874,6.84,6.84,0,0,0-4.167-4.028,8.8,8.8,0,0,0-7.131.777,7.326,7.326,0,0,0-3.457,3.865c.005.04.02.078.025.12a4.893,4.893,0,0,1-.053,1.343,2.821,2.821,0,0,0,.149.534M14,11.413a2.687,2.687,0,0,0,2.181,1.879,14.793,14.793,0,0,0,4.736-.458c2.07-.413,5.655-.98,6.116-3.324a5.378,5.378,0,0,1,.038-.852c-.239-2.807-3.379-4.339-5.812-5.418a1.051,1.051,0,0,1-.486-.413,5.609,5.609,0,0,0-5.439,1.9A7.165,7.165,0,0,0,14,11.413M2.875,8.858A4.515,4.515,0,0,0,4.521,10.3a5.426,5.426,0,0,0,4.835.441,3,3,0,0,0,1.455-1.511,4.54,4.54,0,0,0,.2-.8c0-.085.005-.172,0-.257,0-.007-.05-.364-.018-.2a2.305,2.305,0,0,0-.065-.25c-.01-.033-.138-.328-.078-.208a1.357,1.357,0,0,1-.136-.486,1.11,1.11,0,0,1-.2-1.587.212.212,0,0,0-.088-.085A3.447,3.447,0,0,0,9.4,5.071a14,14,0,0,0-3-.165c-1.559.1-3.246.8-3.757,2.181a1.9,1.9,0,0,0,.224,1.771" transform="translate(-0.002 0)" fill="#000"/>
  </g>
</svg>
